<?xml version="1.0" encoding="UTF-8" standalone="no"?>
<svg
   xmlns:dc="http://purl.org/dc/elements/1.1/"
   xmlns:cc="http://creativecommons.org/ns#"
   xmlns:rdf="http://www.w3.org/1999/02/22-rdf-syntax-ns#"
   xmlns:svg="http://www.w3.org/2000/svg"
   xmlns="http://www.w3.org/2000/svg"
   xmlns:xlink="http://www.w3.org/1999/xlink"
   xmlns:sodipodi="http://sodipodi.sourceforge.net/DTD/sodipodi-0.dtd"
   xmlns:inkscape="http://www.inkscape.org/namespaces/inkscape"
   version="1.1"
   id="Ebene_1"
   x="0px"
   y="0px"
   width="444.65359"
   height="122.55029"
   viewBox="0 0 444.65358 122.55026"
   enable-background="new 0 0 340.157 340.157"
   xml:space="preserve"
   sodipodi:docname="iow_logo_small.svg"
   inkscape:version="1.0.2-2 (e86c870879, 2021-01-15)"
   inkscape:export-filename="D:\Sync\Projects\IOW_ESM\gui\iow_logo_small.png"
   inkscape:export-xdpi="97"
   inkscape:export-ydpi="97"><metadata
   id="metadata135"><rdf:RDF><cc:Work
       rdf:about=""><dc:format>image/svg+xml</dc:format><dc:type
         rdf:resource="http://purl.org/dc/dcmitype/StillImage" /><dc:title></dc:title></cc:Work></rdf:RDF></metadata><defs
   id="defs133"><linearGradient
     inkscape:collect="always"
     id="linearGradient1211"><stop
       style="stop-color:#ff9300;stop-opacity:1;"
       offset="0"
       id="stop1207" /><stop
       style="stop-color:#ffffff;stop-opacity:1"
       offset="1"
       id="stop1209" /></linearGradient><linearGradient
     inkscape:collect="always"
     id="linearGradient1203"><stop
       style="stop-color:#10427a;stop-opacity:1;"
       offset="0"
       id="stop1199" /><stop
       style="stop-color:#000000;stop-opacity:1"
       offset="1"
       id="stop1201" /></linearGradient><linearGradient
     inkscape:collect="always"
     id="linearGradient1195"><stop
       style="stop-color:#10427a;stop-opacity:1;"
       offset="0"
       id="stop1191" /><stop
       style="stop-color:#000000;stop-opacity:1"
       offset="1"
       id="stop1193" /></linearGradient><linearGradient
     inkscape:collect="always"
     id="linearGradient1187"><stop
       style="stop-color:#10427a;stop-opacity:1;"
       offset="0"
       id="stop1183" /><stop
       style="stop-color:#000000;stop-opacity:1"
       offset="1"
       id="stop1185" /></linearGradient><linearGradient
     inkscape:collect="always"
     id="linearGradient1156"><stop
       style="stop-color:#c3cac2;stop-opacity:1;"
       offset="0"
       id="stop1152" /><stop
       style="stop-color:#ffffff;stop-opacity:1"
       offset="1"
       id="stop1154" /></linearGradient><linearGradient
     inkscape:collect="always"
     id="linearGradient1148"><stop
       style="stop-color:#c3cac2;stop-opacity:1;"
       offset="0"
       id="stop1144" /><stop
       style="stop-color:#ffffff;stop-opacity:1"
       offset="1"
       id="stop1146" /></linearGradient><linearGradient
     inkscape:collect="always"
     id="linearGradient1140"><stop
       style="stop-color:#c3cac2;stop-opacity:1;"
       offset="0"
       id="stop1136" /><stop
       style="stop-color:#ffffff;stop-opacity:1"
       offset="1"
       id="stop1138" /></linearGradient><linearGradient
     inkscape:collect="always"
     xlink:href="#linearGradient1140"
     id="linearGradient1142"
     x1="584.96326"
     y1="135.43213"
     x2="640.06543"
     y2="59.174625"
     gradientUnits="userSpaceOnUse" /><linearGradient
     inkscape:collect="always"
     xlink:href="#linearGradient1148"
     id="linearGradient1150"
     x1="498.32214"
     y1="107.38012"
     x2="504.09042"
     y2="48.675568"
     gradientUnits="userSpaceOnUse" /><linearGradient
     inkscape:collect="always"
     xlink:href="#linearGradient1156"
     id="linearGradient1158"
     x1="448.10751"
     y1="96.444595"
     x2="424.8161"
     y2="55.734066"
     gradientUnits="userSpaceOnUse" /><linearGradient
     inkscape:collect="always"
     xlink:href="#linearGradient1187"
     id="linearGradient1189"
     x1="604.01227"
     y1="178.76073"
     x2="699.04755"
     y2="318.06985"
     gradientUnits="userSpaceOnUse" /><linearGradient
     inkscape:collect="always"
     xlink:href="#linearGradient1195"
     id="linearGradient1197"
     x1="527.07806"
     y1="220.48564"
     x2="538.92517"
     y2="329.48087"
     gradientUnits="userSpaceOnUse" /><linearGradient
     inkscape:collect="always"
     xlink:href="#linearGradient1203"
     id="linearGradient1205"
     x1="462.84671"
     y1="202.05814"
     x2="398.80286"
     y2="311.88892"
     gradientUnits="userSpaceOnUse" /><linearGradient
     inkscape:collect="always"
     xlink:href="#linearGradient1211"
     id="linearGradient1213"
     x1="429.56467"
     y1="159.17464"
     x2="475.82034"
     y2="159.17464"
     gradientUnits="userSpaceOnUse" /><linearGradient
     inkscape:collect="always"
     xlink:href="#linearGradient1211"
     id="linearGradient1221"
     x1="464.56467"
     y1="159.17462"
     x2="494.93686"
     y2="159.51082"
     gradientUnits="userSpaceOnUse" /><linearGradient
     inkscape:collect="always"
     xlink:href="#linearGradient1211"
     id="linearGradient1229"
     x1="489.56467"
     y1="159.17462"
     x2="546.66083"
     y2="158.50223"
     gradientUnits="userSpaceOnUse" /><linearGradient
     inkscape:collect="always"
     xlink:href="#linearGradient1211"
     id="linearGradient1237"
     x1="534.56464"
     y1="159.17464"
     x2="566.32458"
     y2="159.17464"
     gradientUnits="userSpaceOnUse" /><linearGradient
     inkscape:collect="always"
     xlink:href="#linearGradient1211"
     id="linearGradient1245"
     x1="554.56464"
     y1="159.17464"
     x2="660.73822"
     y2="159.17464"
     gradientUnits="userSpaceOnUse" /></defs><sodipodi:namedview
   pagecolor="#ffffff"
   bordercolor="#666666"
   borderopacity="1"
   objecttolerance="10"
   gridtolerance="10"
   guidetolerance="10"
   inkscape:pageopacity="0"
   inkscape:pageshadow="2"
   inkscape:window-width="1920"
   inkscape:window-height="1017"
   id="namedview131"
   showgrid="false"
   inkscape:zoom="0.88347549"
   inkscape:cx="460.91756"
   inkscape:cy="197.00846"
   inkscape:window-x="-8"
   inkscape:window-y="-8"
   inkscape:window-maximized="1"
   inkscape:current-layer="Ebene_1"
   fit-margin-top="3"
   fit-margin-left="3"
   fit-margin-right="3"
   fit-margin-bottom="3"
   lock-margins="true"
   showguides="true"
   inkscape:guide-bbox="true"><sodipodi:guide
     position="287.73281,4.3695364"
     orientation="0,-1"
     id="guide1327" /><sodipodi:guide
     position="115.409,117.72271"
     orientation="0,-1"
     id="guide1329" /></sodipodi:namedview>
<g
   id="g128"
   transform="translate(125.79885,-101.05624)">
	<g
   id="g12">
		<polyline
   fill="none"
   stroke="#00467e"
   stroke-width="4.7835"
   stroke-linejoin="bevel"
   stroke-miterlimit="3.8637"
   points="    29.941,191.603 230.341,191.603 238.739,166.663 253.815,218.627 267.242,166.663 280.707,218.627 295.351,167.926     311.858,167.926   "
   id="polyline2" />
		<g
   id="g6">
			
				<circle
   fill="none"
   stroke="#00467e"
   stroke-width="4.7835"
   stroke-linejoin="bevel"
   stroke-miterlimit="3.8637"
   cx="196.79201"
   cy="193.34399"
   r="24.583"
   id="circle4" />
		</g>
		
			<line
   fill="none"
   stroke="#00467e"
   stroke-width="4.783"
   stroke-linejoin="bevel"
   stroke-miterlimit="3.8637"
   x1="161.93401"
   y1="165.491"
   x2="161.93401"
   y2="219.237"
   id="line8" />
		
			<line
   fill="none"
   stroke="#00467e"
   stroke-width="4.7835"
   stroke-linejoin="bevel"
   stroke-miterlimit="3.8637"
   x1="161.93401"
   y1="147.882"
   x2="161.93401"
   y2="158.049"
   id="line10" />
	</g>
	
		<line
   fill="#00467e"
   stroke="#00467e"
   stroke-width="0.598"
   stroke-miterlimit="3.8637"
   x1="49.570999"
   y1="105.596"
   x2="142.35001"
   y2="105.596"
   id="line14" />
	
		<line
   fill="#00467e"
   stroke="#00467e"
   stroke-width="2.99"
   stroke-miterlimit="3.8637"
   x1="49.568001"
   y1="154.74699"
   x2="142.35001"
   y2="154.74699"
   id="line16" />
	
		<line
   fill="#00467e"
   stroke="#00467e"
   stroke-width="5.979"
   stroke-miterlimit="3.8637"
   x1="49.568001"
   y1="216.248"
   x2="142.35001"
   y2="216.248"
   id="line18" />
	
		<line
   fill="#00467e"
   stroke="#00467e"
   stroke-width="5.377"
   stroke-miterlimit="3.8637"
   x1="49.568001"
   y1="203.905"
   x2="142.35001"
   y2="203.905"
   id="line20" />
	
		<line
   fill="#00467e"
   stroke="#00467e"
   stroke-width="4.1855"
   stroke-miterlimit="3.8637"
   x1="50.040001"
   y1="179.912"
   x2="142.35001"
   y2="179.912"
   id="line22" />
	
		<line
   fill="#00467e"
   stroke="#00467e"
   stroke-width="3.588"
   stroke-miterlimit="3.8637"
   x1="49.568001"
   y1="167.07899"
   x2="142.35001"
   y2="167.07899"
   id="line24" />
	
		<line
   fill="#00467e"
   stroke="#00467e"
   stroke-width="1.794"
   stroke-miterlimit="3.8637"
   x1="49.568001"
   y1="130.08299"
   x2="142.35001"
   y2="130.08299"
   id="line26" />
	
		<line
   fill="#00467e"
   stroke="#00467e"
   stroke-width="1.196"
   stroke-miterlimit="3.8637"
   x1="49.568001"
   y1="117.75"
   x2="142.35001"
   y2="117.75"
   id="line28" />
	
		<line
   fill="#00467e"
   stroke="#00467e"
   stroke-width="2.392"
   stroke-miterlimit="3.8637"
   x1="49.568001"
   y1="142.416"
   x2="142.35001"
   y2="142.416"
   id="line30" />
	<polygon
   fill="#ffffff"
   stroke="#00467e"
   stroke-width="0.4219"
   stroke-miterlimit="3.8637"
   points="68.257,210.248 74.417,210.248 74.417,216.408 80.578,216.408 80.578,210.305 89.81,210.305 89.819,204.088 99.06,204.088 99.06,207.168 105.22,207.168 105.22,201.009 111.381,201.009 111.381,191.767 108.3,191.767 108.3,176.365 114.461,176.365 114.461,182.525 120.622,182.525 120.622,167.125 114.461,167.125 114.461,160.965 123.702,160.965 123.702,157.884 132.942,157.884 132.942,154.804 139.103,154.804 139.103,151.724 142.184,151.724 142.184,148.366 120.639,148.366 120.622,151.91 117.541,151.91 117.541,154.804 114.461,154.804 114.461,157.884 108.3,157.884 108.272,145.588 102.14,145.563 102.14,139.402 99.06,139.402 99.06,133.242 102.14,133.242 102.14,127.082 105.22,127.082 105.22,120.921 108.3,120.921 108.3,114.76 114.461,114.76 114.461,111.68 111.381,111.68 111.381,105.52 102.14,105.52 102.14,108.6 99.06,108.6 99.06,111.68 95.979,111.68 95.979,120.921 99.06,120.921 99.06,124.001 95.979,124.001 95.979,127.082 89.819,127.082 89.819,133.242 86.738,133.242 86.738,136.322 83.658,136.322 83.658,139.402 83.658,154.804 89.819,154.804 89.819,157.884 92.899,157.884 92.899,160.965 89.819,160.965 89.819,166.989 86.72,166.989 86.738,185.605 83.658,185.605 83.658,185.605 80.578,185.627 80.578,194.846 77.498,194.846 77.498,197.928 77.498,201.009 71.337,201.009 71.337,194.846 68.257,194.846 68.257,185.605 65.176,185.605 65.176,176.365 62.096,176.365 62.096,167.125 59.016,167.125 59.016,160.965 55.936,160.965 55.936,167.125 52.855,167.125 52.855,173.285 49.775,173.285 49.775,182.525 55.936,182.525 55.936,179.445 59.016,179.445 59.016,194.846 55.936,194.846 55.936,197.928 52.855,197.928 52.855,207.168 55.936,207.168 55.936,210.248 59.016,210.248 59.016,216.408 65.176,216.408 65.176,213.328 68.257,213.328 "
   id="polygon32" />
	<g
   id="g126">
		<path
   fill="#00467e"
   d="m 169.616,115.182 h -4.949 v -9.912 h 1.41 v 8.761 h 3.77 z"
   id="path34" />
		<path
   fill="#00467e"
   d="m 171,115.182 v -7.567 h 4.748 l -0.187,1.107 h -3.209 v 1.957 h 2.676 v 1.108 h -2.661 v 2.244 h 3.496 v 1.15 H 171 Z"
   id="path36" />
		<path
   fill="#00467e"
   d="m 178.039,115.182 v -7.567 h 1.366 v 7.567 z"
   id="path38" />
		<path
   fill="#00467e"
   d="m 186.37,114.966 c -0.518,0.172 -0.921,0.216 -1.755,0.216 h -2.647 v -7.567 h 2.432 c 0.921,0 1.28,0.058 1.684,0.201 0.776,0.288 1.309,0.921 1.309,1.698 0,0.46 -0.201,0.892 -0.561,1.208 -0.216,0.201 -0.504,0.36 -0.835,0.446 0.417,0.072 0.764,0.229 1.036,0.445 0.461,0.346 0.705,0.879 0.705,1.453 -0.001,0.835 -0.532,1.583 -1.368,1.9 z m -0.862,-6.028 c -0.246,-0.144 -0.618,-0.201 -1.036,-0.201 h -1.18 v 1.971 h 1.266 c 0.763,0 1.065,-0.115 1.281,-0.503 0.071,-0.145 0.114,-0.303 0.114,-0.475 0,-0.36 -0.186,-0.634 -0.445,-0.792 z m -2.201,2.863 v 2.303 h 1.28 c 0.475,0 0.834,-0.059 1.093,-0.174 0.346,-0.157 0.575,-0.546 0.575,-0.978 0,-0.532 -0.287,-0.85 -0.632,-0.993 -0.259,-0.115 -0.662,-0.158 -1.008,-0.158 z"
   id="path40" />
		<path
   fill="#00467e"
   d="m 194.128,115.182 -2.158,-3.784 c -0.445,-0.747 -0.949,-1.812 -1.007,-1.956 0.028,0.388 0.071,1.165 0.086,2.115 l 0.058,3.625 h -1.338 v -7.567 h 1.525 l 2.201,3.812 c 0.445,0.776 0.806,1.554 0.905,1.756 -0.014,-0.174 -0.113,-1.137 -0.129,-2.029 l -0.043,-3.539 h 1.295 v 7.567 z"
   id="path42" />
		<path
   fill="#00467e"
   d="m 198.116,115.182 v -7.567 h 1.367 v 7.567 z"
   id="path44" />
		<path
   fill="#00467e"
   d="m 206.723,115.182 h -5.137 v -0.965 l 3.38,-4.862 c 0.202,-0.272 0.375,-0.531 0.505,-0.662 -0.174,0.016 -0.446,0.016 -0.85,0.016 h -2.906 l 0.331,-1.094 h 4.964 v 1.007 l -3.338,4.876 c -0.188,0.259 -0.359,0.489 -0.475,0.619 0.188,-0.014 0.475,-0.028 0.763,-0.028 h 3.122 z"
   id="path46" />
		<path
   fill="#00467e"
   d="m 212.293,115.182 v -9.912 h 1.409 v 9.912 z"
   id="path48" />
		<path
   fill="#00467e"
   d="m 220.653,115.182 -2.158,-3.784 c -0.445,-0.747 -0.95,-1.812 -1.007,-1.956 0.028,0.388 0.071,1.165 0.086,2.115 l 0.058,3.625 h -1.338 v -7.567 h 1.525 l 2.201,3.812 c 0.445,0.776 0.806,1.554 0.905,1.756 -0.014,-0.174 -0.114,-1.137 -0.129,-2.029 l -0.043,-3.539 h 1.295 v 7.567 z"
   id="path50" />
		<path
   fill="#00467e"
   d="m 228.685,114.894 c -0.546,0.303 -1.223,0.446 -2,0.446 -0.963,0 -1.942,-0.23 -2.79,-0.677 l 0.517,-1.049 c 0.792,0.417 1.511,0.618 2.346,0.618 0.504,0 0.835,-0.072 1.136,-0.245 0.361,-0.201 0.562,-0.489 0.562,-0.863 0,-0.547 -0.388,-0.891 -1.337,-1.137 l -1.08,-0.272 c -0.69,-0.188 -1.223,-0.519 -1.524,-0.979 -0.217,-0.315 -0.331,-0.662 -0.331,-1.05 0,-1.337 1.194,-2.272 2.877,-2.272 0.979,0 2.043,0.287 2.72,0.748 l -0.618,0.963 c -0.677,-0.402 -1.367,-0.604 -2.043,-0.604 -0.879,0 -1.468,0.374 -1.468,0.979 0,0.475 0.331,0.733 1.193,0.978 l 1.036,0.259 c 0.591,0.159 1.181,0.417 1.525,0.777 0.346,0.346 0.546,0.849 0.546,1.367 -0.002,0.833 -0.476,1.596 -1.267,2.013 z"
   id="path52" />
		<path
   fill="#00467e"
   d="m 236.86,108.722 h -2.186 v 6.459 h -1.339 v -6.459 h -2.158 v -1.107 h 5.87 z"
   id="path54" />
		<path
   fill="#00467e"
   d="m 238.618,115.182 v -7.567 h 1.367 v 7.567 z"
   id="path56" />
		<path
   fill="#00467e"
   d="m 247.439,108.722 h -2.187 v 6.459 h -1.338 v -6.459 h -2.158 v -1.107 h 5.869 z"
   id="path58" />
		<path
   fill="#00467e"
   d="m 254.105,114.592 c -0.504,0.475 -1.209,0.72 -2.259,0.72 -1.454,0 -2.259,-0.532 -2.634,-1.194 -0.229,-0.432 -0.301,-0.748 -0.301,-1.597 v -4.906 h 1.352 v 4.647 c 0,0.546 0.029,0.949 0.115,1.15 0.201,0.489 0.748,0.776 1.481,0.776 0.59,0 1.036,-0.172 1.267,-0.475 0.216,-0.287 0.288,-0.546 0.288,-1.28 v -4.819 h 1.367 v 4.877 c 0.001,1.209 -0.158,1.626 -0.676,2.101 z"
   id="path60" />
		<path
   fill="#00467e"
   d="m 262.165,108.722 h -2.186 v 6.459 h -1.339 v -6.459 h -2.158 v -1.107 h 5.87 z"
   id="path62" />
		<path
   fill="#00467e"
   d="m 263.895,115.182 v -7.567 h 4.748 l -0.187,1.107 h -3.209 v 1.957 h 2.676 v 1.108 h -2.661 v 2.244 h 3.496 v 1.15 h -4.863 z"
   id="path64" />
		<path
   fill="#00467e"
   d="m 278.487,108.693 h -3.007 v 1.972 h 2.46 v 1.093 h -2.46 v 3.424 h -1.338 v -7.567 h 4.518 z"
   id="path66" />
		<path
   fill="#00467e"
   d="m 280.574,114.333 c -0.719,-0.763 -1.05,-1.697 -1.05,-2.949 0,-2.417 1.324,-3.884 3.497,-3.884 1.222,0 2.1,0.403 2.732,1.18 0.547,0.633 0.82,1.525 0.82,2.733 0,1.224 -0.245,2.086 -0.776,2.733 -0.634,0.792 -1.439,1.166 -2.691,1.166 -1.136,0 -1.898,-0.302 -2.532,-0.979 z m 4.231,-1.122 c 0.188,-0.461 0.244,-0.921 0.244,-1.698 0,-0.934 -0.101,-1.539 -0.331,-2.013 -0.345,-0.676 -0.92,-0.949 -1.726,-0.949 -0.691,0 -1.281,0.302 -1.582,0.79 -0.274,0.446 -0.39,1.065 -0.39,1.957 0,1.008 0.174,1.755 0.475,2.273 0.274,0.475 0.85,0.734 1.611,0.734 0.85,0 1.426,-0.347 1.699,-1.094 z"
   id="path68" />
		<path
   fill="#00467e"
   d="m 292.851,115.182 c -0.216,-0.374 -0.461,-0.748 -0.72,-1.165 -0.647,-1.036 -1.035,-1.511 -1.409,-1.799 -0.216,-0.187 -0.403,-0.244 -0.662,-0.273 v 3.237 h -1.339 v -7.567 h 2.26 c 1.137,0 1.727,0.129 2.173,0.46 0.531,0.388 0.862,0.993 0.862,1.698 0,1.251 -0.82,2.057 -2.101,2.114 0.13,0.087 0.273,0.216 0.374,0.347 0.244,0.301 0.677,0.862 1.08,1.396 0.431,0.618 1.093,1.509 1.121,1.553 h -1.639 z m -2.791,-6.489 v 2.302 h 0.733 c 0.748,0 1.15,-0.085 1.439,-0.301 0.244,-0.188 0.388,-0.489 0.388,-0.893 0,-0.475 -0.272,-0.849 -0.733,-0.992 -0.259,-0.087 -0.562,-0.116 -0.993,-0.116 z"
   id="path70" />
		<path
   fill="#00467e"
   d="m 173.117,132.295 c -0.446,0.114 -1.052,0.157 -1.568,0.157 h -3.021 v -9.912 h 2.1 c 1.668,0 2.115,0.044 2.734,0.375 0.878,0.46 1.339,1.165 1.339,2.071 0,1.035 -0.591,1.827 -1.799,2.186 1.496,0.332 2.215,1.268 2.215,2.563 -10e-4,1.38 -0.849,2.257 -2,2.56 z m -0.878,-8.488 c -0.23,-0.072 -0.504,-0.102 -1.008,-0.102 h -1.352 v 3.022 h 1.567 c 0.878,0 1.181,-0.158 1.468,-0.548 0.188,-0.258 0.287,-0.633 0.287,-0.963 0.001,-0.689 -0.387,-1.236 -0.962,-1.409 z m 0.287,4.158 c -0.259,-0.059 -0.546,-0.087 -1.035,-0.087 h -1.597 v 3.453 h 1.956 c 0.821,0 1.742,-0.49 1.742,-1.754 0,-0.807 -0.446,-1.468 -1.066,-1.612 z"
   id="path72" />
		<path
   fill="#00467e"
   d="m 181.738,132.452 -0.72,-1.969 h -2.833 l -0.721,1.969 h -1.396 l 2.82,-7.582 h 1.568 l 2.762,7.582 z m -2.115,-6.358 c -0.042,0.201 -1.035,3.107 -1.094,3.31 h 2.173 c -0.087,-0.259 -1.036,-3.109 -1.079,-3.31 z"
   id="path74" />
		<path
   fill="#00467e"
   d="m 188.992,132.452 h -4.345 v -7.566 h 1.366 v 6.459 h 3.194 z"
   id="path76" />
		<path
   fill="#00467e"
   d="m 194.621,125.994 h -2.188 v 6.458 h -1.337 v -6.458 h -2.158 v -1.107 h 5.869 z"
   id="path78" />
		<path
   fill="#00467e"
   d="m 196.378,132.452 v -7.566 h 1.366 v 7.566 z"
   id="path80" />
		<path
   fill="#00467e"
   d="m 203.4,132.568 c -1.035,0 -1.899,-0.316 -2.546,-0.935 -0.72,-0.69 -1.108,-1.683 -1.108,-2.864 0,-0.921 0.23,-1.711 0.647,-2.359 0.647,-1.036 1.77,-1.668 3.064,-1.668 0.791,0 1.625,0.229 2.13,0.604 l -0.662,0.906 c -0.461,-0.288 -0.921,-0.432 -1.454,-0.432 -0.79,0 -1.495,0.389 -1.855,1.064 -0.259,0.432 -0.374,0.993 -0.374,1.799 0,1.064 0.158,1.611 0.604,2.114 0.432,0.489 0.993,0.733 1.684,0.733 0.59,0 1.078,-0.172 1.568,-0.475 l 0.646,0.836 c -0.574,0.447 -1.408,0.677 -2.344,0.677 z"
   id="path82" />
		<path
   fill="#00467e"
   d="m 212.942,132.64 c -1.137,0 -2.229,-0.287 -3.194,-0.878 l 0.547,-1.064 c 0.864,0.533 1.684,0.82 2.676,0.82 1.296,0 2.145,-0.662 2.145,-1.725 0,-0.807 -0.533,-1.367 -1.64,-1.684 l -1.036,-0.303 c -1.496,-0.432 -2.346,-1.15 -2.346,-2.561 0,-1.712 1.324,-2.877 3.28,-2.877 1.094,0 2.158,0.316 3.036,0.935 l -0.619,0.979 c -0.92,-0.562 -1.539,-0.776 -2.359,-0.776 -1.107,0 -1.798,0.575 -1.798,1.496 0,0.704 0.402,1.107 1.468,1.424 l 1.165,0.345 c 1.323,0.389 2.417,1.252 2.417,2.792 0,1.381 -1.137,3.077 -3.742,3.077 z"
   id="path84" />
		<path
   fill="#00467e"
   d="m 218.657,132.452 v -7.566 h 4.748 l -0.187,1.107 h -3.208 v 1.957 h 2.675 v 1.107 h -2.661 v 2.244 h 3.496 v 1.15 h -4.863 z"
   id="path86" />
		<path
   fill="#00467e"
   d="m 230.243,132.452 -0.721,-1.969 h -2.833 l -0.72,1.969 h -1.396 l 2.819,-7.582 h 1.568 l 2.763,7.582 z m -2.116,-6.358 c -0.043,0.201 -1.036,3.107 -1.093,3.31 h 2.173 c -0.087,-0.259 -1.036,-3.109 -1.08,-3.31 z"
   id="path88" />
		<path
   fill="#00467e"
   d="m 241.224,132.452 c -0.287,-0.56 -0.417,-0.79 -0.819,-1.466 -0.764,-1.266 -1.008,-1.684 -1.713,-2.475 -0.259,-0.287 -0.475,-0.432 -0.892,-0.446 v 4.387 h -1.382 v -9.912 h 2.776 c 1.181,0 1.871,0.273 2.347,0.719 0.445,0.418 0.877,1.08 0.877,2.043 0,1.54 -0.992,2.777 -2.647,2.72 0.46,0.374 0.69,0.69 0.863,0.921 0.202,0.273 0.503,0.705 0.834,1.223 0.433,0.676 1.238,1.971 1.439,2.287 h -1.683 z m -1.18,-8.587 c -0.288,-0.115 -0.69,-0.188 -1.209,-0.188 H 237.8 v 3.453 h 0.964 c 0.877,0 1.366,-0.144 1.713,-0.475 0.301,-0.288 0.488,-0.763 0.488,-1.339 0,-0.69 -0.375,-1.235 -0.921,-1.451 z"
   id="path90" />
		<path
   fill="#00467e"
   d="m 244.724,132.452 v -7.566 h 4.747 l -0.187,1.107 h -3.208 v 1.957 h 2.676 v 1.107 h -2.661 v 2.244 h 3.495 v 1.15 h -4.862 z"
   id="path92" />
		<path
   fill="#00467e"
   d="m 255.805,132.165 c -0.546,0.302 -1.223,0.446 -2,0.446 -0.963,0 -1.942,-0.23 -2.791,-0.677 l 0.518,-1.049 c 0.792,0.417 1.511,0.618 2.346,0.618 0.504,0 0.835,-0.071 1.136,-0.244 0.361,-0.202 0.562,-0.489 0.562,-0.864 0,-0.546 -0.388,-0.891 -1.337,-1.136 l -1.08,-0.273 c -0.69,-0.187 -1.223,-0.518 -1.524,-0.978 -0.217,-0.317 -0.331,-0.662 -0.331,-1.051 0,-1.338 1.194,-2.273 2.877,-2.273 0.979,0 2.043,0.288 2.72,0.749 l -0.618,0.964 c -0.677,-0.403 -1.367,-0.605 -2.043,-0.605 -0.879,0 -1.468,0.375 -1.468,0.979 0,0.475 0.331,0.734 1.193,0.979 l 1.036,0.259 c 0.591,0.157 1.181,0.417 1.525,0.775 0.346,0.347 0.546,0.85 0.546,1.367 -0.002,0.835 -0.476,1.597 -1.267,2.014 z"
   id="path94" />
		<path
   fill="#00467e"
   d="m 259.131,132.452 v -7.566 h 4.748 l -0.187,1.107 h -3.209 v 1.957 h 2.676 v 1.107 h -2.661 v 2.244 h 3.495 v 1.15 h -4.862 z"
   id="path96" />
		<path
   fill="#00467e"
   d="m 270.716,132.452 -0.72,-1.969 h -2.834 l -0.719,1.969 h -1.396 l 2.819,-7.582 h 1.568 l 2.763,7.582 z m -2.115,-6.358 c -0.043,0.201 -1.036,3.107 -1.093,3.31 h 2.173 c -0.087,-0.259 -1.036,-3.109 -1.08,-3.31 z"
   id="path98" />
		<path
   fill="#00467e"
   d="m 277.783,132.452 c -0.217,-0.373 -0.461,-0.747 -0.72,-1.165 -0.647,-1.035 -1.035,-1.51 -1.409,-1.797 -0.216,-0.188 -0.403,-0.245 -0.662,-0.273 v 3.236 h -1.339 v -7.566 h 2.26 c 1.137,0 1.727,0.129 2.172,0.46 0.532,0.389 0.863,0.993 0.863,1.698 0,1.251 -0.82,2.058 -2.101,2.114 0.13,0.086 0.273,0.216 0.374,0.346 0.244,0.303 0.676,0.862 1.079,1.396 0.432,0.618 1.094,1.509 1.122,1.552 h -1.639 z m -2.791,-6.488 v 2.303 h 0.733 c 0.748,0 1.15,-0.086 1.439,-0.302 0.244,-0.188 0.388,-0.49 0.388,-0.893 0,-0.475 -0.273,-0.85 -0.733,-0.993 -0.26,-0.086 -0.562,-0.115 -0.993,-0.115 z"
   id="path100" />
		<path
   fill="#00467e"
   d="m 284.26,132.568 c -1.036,0 -1.899,-0.316 -2.546,-0.935 -0.72,-0.69 -1.108,-1.683 -1.108,-2.864 0,-0.921 0.23,-1.711 0.647,-2.359 0.646,-1.036 1.77,-1.668 3.063,-1.668 0.792,0 1.626,0.229 2.13,0.604 l -0.662,0.906 c -0.46,-0.288 -0.92,-0.432 -1.453,-0.432 -0.79,0 -1.495,0.389 -1.855,1.064 -0.259,0.432 -0.374,0.993 -0.374,1.799 0,1.064 0.158,1.611 0.604,2.114 0.433,0.489 0.993,0.733 1.685,0.733 0.589,0 1.078,-0.172 1.568,-0.475 l 0.646,0.836 c -0.576,0.447 -1.41,0.677 -2.345,0.677 z"
   id="path102" />
		<path
   fill="#00467e"
   d="M 292.463,132.452 V 129 h -3.021 v 3.452 h -1.352 v -7.566 h 1.352 v 3.007 h 3.021 v -3.007 h 1.352 v 7.566 z"
   id="path104" />
		<path
   fill="#00467e"
   d="m 220.282,149.753 h -1.698 l -1.093,-4.992 c -0.272,-1.209 -0.432,-2.244 -0.503,-2.849 l -0.087,-0.015 c -0.072,0.503 -0.288,1.784 -0.504,2.806 l -1.064,5.05 h -1.712 l -2.345,-9.941 h 1.496 l 1.093,5.107 c 0.303,1.438 0.432,2.518 0.533,3.137 h 0.086 c 0.115,-0.705 0.302,-1.871 0.546,-3.007 l 1.151,-5.237 h 1.597 l 1.137,5.265 c 0.245,1.107 0.475,2.488 0.519,2.921 l 0.087,0.014 c 0.085,-0.561 0.359,-2.172 0.574,-3.179 l 1.051,-5.021 h 1.438 z"
   id="path106" />
		<path
   fill="#00467e"
   d="m 228.228,149.725 -0.72,-1.972 h -2.834 l -0.719,1.972 h -1.396 l 2.819,-7.583 h 1.568 l 2.763,7.583 z m -2.116,-6.359 c -0.043,0.201 -1.036,3.107 -1.093,3.31 h 2.173 c -0.087,-0.26 -1.036,-3.109 -1.08,-3.31 z"
   id="path108" />
		<path
   fill="#00467e"
   d="m 235.295,149.725 c -0.216,-0.374 -0.461,-0.748 -0.72,-1.166 -0.647,-1.035 -1.035,-1.51 -1.409,-1.799 -0.216,-0.188 -0.403,-0.244 -0.662,-0.272 v 3.237 h -1.339 v -7.568 h 2.26 c 1.137,0 1.727,0.131 2.173,0.46 0.531,0.39 0.862,0.993 0.862,1.698 0,1.252 -0.82,2.058 -2.101,2.115 0.13,0.086 0.273,0.216 0.374,0.345 0.244,0.303 0.677,0.863 1.08,1.396 0.431,0.619 1.093,1.512 1.121,1.555 h -1.639 z m -2.791,-6.488 v 2.302 h 0.733 c 0.749,0 1.151,-0.087 1.439,-0.303 0.244,-0.187 0.388,-0.489 0.388,-0.893 0,-0.475 -0.272,-0.848 -0.733,-0.993 -0.26,-0.085 -0.562,-0.113 -0.993,-0.113 z"
   id="path110" />
		<path
   fill="#00467e"
   d="m 243.168,149.725 -2.158,-3.784 c -0.446,-0.749 -0.949,-1.813 -1.006,-1.957 0.028,0.39 0.071,1.165 0.085,2.114 l 0.059,3.627 h -1.339 v -7.568 h 1.525 l 2.202,3.813 c 0.445,0.776 0.806,1.554 0.906,1.754 -0.016,-0.172 -0.116,-1.136 -0.131,-2.028 l -0.043,-3.539 h 1.295 v 7.568 z"
   id="path112" />
		<path
   fill="#00467e"
   d="m 247.128,149.725 v -7.568 h 4.748 l -0.187,1.108 h -3.208 v 1.956 h 2.675 v 1.107 h -2.661 v 2.245 h 3.496 v 1.151 h -4.863 z"
   id="path114" />
		<path
   fill="#00467e"
   d="m 261.001,149.725 -0.389,-4.576 c -0.058,-0.604 -0.071,-1.396 -0.071,-1.539 -0.03,0.115 -0.23,0.907 -0.418,1.497 l -1.511,4.618 h -1.165 l -1.439,-4.59 c -0.187,-0.562 -0.373,-1.41 -0.402,-1.568 0,0.13 -0.044,0.964 -0.101,1.568 l -0.374,4.59 h -1.31 l 0.777,-7.568 h 1.783 l 1.296,4.158 c 0.172,0.547 0.374,1.425 0.388,1.54 0.028,-0.115 0.23,-0.979 0.403,-1.526 l 1.28,-4.172 h 1.842 l 0.748,7.568 z"
   id="path116" />
		<path
   fill="#00467e"
   d="m 269.681,149.135 c -0.505,0.475 -1.21,0.719 -2.26,0.719 -1.452,0 -2.259,-0.532 -2.633,-1.193 -0.23,-0.433 -0.302,-0.749 -0.302,-1.598 v -4.906 h 1.352 v 4.646 c 0,0.548 0.03,0.95 0.115,1.151 0.202,0.489 0.749,0.778 1.482,0.778 0.59,0 1.035,-0.174 1.266,-0.476 0.216,-0.288 0.288,-0.548 0.288,-1.28 v -4.82 h 1.367 v 4.877 c 0,1.21 -0.159,1.628 -0.675,2.102 z m -3.914,-7.568 c -0.46,0 -0.835,-0.416 -0.835,-0.906 0,-0.489 0.375,-0.892 0.835,-0.892 0.461,0 0.849,0.402 0.849,0.892 -10e-4,0.49 -0.375,0.906 -0.849,0.906 z m 3.006,0 c -0.475,0 -0.85,-0.416 -0.85,-0.906 0,-0.489 0.375,-0.892 0.85,-0.892 0.446,0 0.834,0.402 0.834,0.892 0,0.49 -0.373,0.906 -0.834,0.906 z"
   id="path118" />
		<path
   fill="#00467e"
   d="m 277.237,149.725 -2.159,-3.784 c -0.445,-0.749 -0.949,-1.813 -1.006,-1.957 0.028,0.39 0.071,1.165 0.086,2.114 l 0.058,3.627 h -1.338 v -7.568 h 1.524 l 2.202,3.813 c 0.446,0.776 0.806,1.554 0.906,1.754 -0.015,-0.172 -0.116,-1.136 -0.13,-2.028 l -0.043,-3.539 h 1.295 v 7.568 z"
   id="path120" />
		<path
   fill="#00467e"
   d="m 285.023,142.416 c 1.123,0.347 2.173,1.281 2.173,3.525 0,2.445 -1.524,3.482 -2.46,3.683 -0.331,0.087 -0.791,0.102 -1.353,0.102 h -2.201 v -7.568 h 1.698 c 0.791,-10e-4 1.525,-10e-4 2.143,0.258 z m 0.13,1.511 c -0.445,-0.533 -0.949,-0.69 -1.727,-0.69 h -0.892 v 5.394 h 1.051 c 0.244,0 0.517,-0.028 0.719,-0.085 0.806,-0.202 1.409,-0.907 1.409,-2.504 10e-4,-0.993 -0.156,-1.64 -0.56,-2.115 z"
   id="path122" />
		<path
   fill="#00467e"
   d="m 289.329,149.725 v -7.568 h 4.748 l -0.187,1.108 h -3.209 v 1.956 h 2.676 v 1.107 h -2.661 v 2.245 h 3.495 v 1.151 h -4.862 z"
   id="path124" />
	</g>
</g>
<g
   id="g1134"
   transform="matrix(0.55797918,0,0,0.55797918,-230.95097,-29.223183)"><rect
     style="fill:url(#linearGradient1142);fill-opacity:1;stroke:#4c564c;stroke-width:2.84966;stroke-miterlimit:4;stroke-dasharray:none;stroke-dashoffset:0;stroke-opacity:1"
     id="rect1622"
     width="104.99997"
     height="85"
     x="535.06549"
     y="59.174625" /><rect
     style="fill:url(#linearGradient1150);fill-opacity:1;stroke:#4c564c;stroke-width:2.84966;stroke-miterlimit:4;stroke-dasharray:none;stroke-dashoffset:0;stroke-opacity:1"
     id="rect1620"
     width="69.999977"
     height="84.999992"
     x="465.06546"
     y="59.174625" /><rect
     style="fill:url(#linearGradient1158);fill-opacity:1;stroke:#4c564c;stroke-width:2.84966;stroke-miterlimit:4;stroke-dasharray:none;stroke-dashoffset:0;stroke-opacity:1"
     id="rect1618"
     width="34.999996"
     height="85"
     x="430.06546"
     y="59.174625"
     ry="0" /><rect
     style="fill:url(#linearGradient1205);fill-opacity:1;stroke:#4c564c;stroke-width:2.84966;stroke-miterlimit:4;stroke-dasharray:none;stroke-dashoffset:0;stroke-opacity:1"
     id="rect1624"
     width="59.999989"
     height="90"
     x="430.06546"
     y="174.17462" /><rect
     style="fill:url(#linearGradient1189);fill-opacity:1;stroke:#4c564c;stroke-width:2.84966;stroke-miterlimit:4;stroke-dasharray:none;stroke-dashoffset:0;stroke-opacity:1"
     id="rect1628"
     width="85.000008"
     height="90.000008"
     x="555.06543"
     y="174.17462" /><rect
     style="fill:url(#linearGradient1197);fill-opacity:1;stroke:#4c564c;stroke-width:2.84966;stroke-miterlimit:4;stroke-dasharray:none;stroke-dashoffset:0;stroke-opacity:1"
     id="rect1626"
     width="65"
     height="90.000008"
     x="490.06546"
     y="174.17462" /><text
     xml:space="preserve"
     style="font-size:96px;line-height:1.2;font-family:sans-serif;letter-spacing:9.99999px;stroke-width:0.999999"
     x="432.20831"
     y="134.88893"
     id="text1614"><tspan
       sodipodi:role="line"
       id="tspan1612"
       x="432.20831"
       y="134.88893"
       style="font-style:normal;font-variant:normal;font-weight:normal;font-stretch:normal;font-size:98.6668px;font-family:MetaPro;-inkscape-font-specification:MetaPro;letter-spacing:9.99999px;word-spacing:0.02px;fill:#10427a;fill-opacity:1;stroke-width:0.999999">IOW</tspan><tspan
       sodipodi:role="line"
       x="432.20831"
       y="253.28909"
       style="font-style:normal;font-variant:normal;font-weight:normal;font-stretch:normal;font-size:98.6668px;font-family:MetaPro;-inkscape-font-specification:MetaPro;letter-spacing:9.99999px;word-spacing:0.02px;fill:#ffffff;fill-opacity:1;stroke-width:0.999999"
       id="tspan1616">ESM</tspan></text><rect
     style="fill:url(#linearGradient1213);fill-opacity:1;stroke:#4c564c;stroke-width:2.84966;stroke-miterlimit:4;stroke-dasharray:none;stroke-dashoffset:0;stroke-opacity:1"
     id="rect1632"
     width="34.999996"
     height="30.000008"
     x="430.06546"
     y="144.17462" /><rect
     style="fill:url(#linearGradient1221);fill-opacity:1;stroke:#4c564c;stroke-width:2.84966;stroke-miterlimit:4;stroke-dasharray:none;stroke-dashoffset:0;stroke-opacity:1"
     id="rect1634"
     width="25.000002"
     height="29.999992"
     x="465.06546"
     y="144.17462" /><rect
     style="fill:url(#linearGradient1229);fill-opacity:1;stroke:#4c564c;stroke-width:2.84966;stroke-miterlimit:4;stroke-dasharray:none;stroke-dashoffset:0;stroke-opacity:1"
     id="rect1636"
     width="44.999989"
     height="30"
     x="490.06546"
     y="144.17462" /><rect
     style="fill:url(#linearGradient1237);fill-opacity:1;stroke:#4c564c;stroke-width:2.84966;stroke-miterlimit:4;stroke-dasharray:none;stroke-dashoffset:0;stroke-opacity:1"
     id="rect1638"
     width="20.000027"
     height="30.000008"
     x="535.06543"
     y="144.17462" /><rect
     style="fill:url(#linearGradient1245);fill-opacity:1;stroke:#4c564c;stroke-width:2.84966;stroke-miterlimit:4;stroke-dasharray:none;stroke-dashoffset:0;stroke-opacity:1"
     id="rect1640"
     width="85.000008"
     height="30.000008"
     x="555.06543"
     y="144.17462" /></g></svg>
